<svg width="512" height="512" viewBox="0 0 512 512" fill="none" xmlns="http://www.w3.org/2000/svg">
<g clip-path="url(#clip0_97_371)">
<mask id="mask0_97_371" style="mask-type:luminance" maskUnits="userSpaceOnUse" x="0" y="0" width="512" height="512">
<path d="M414.72 0H97.28C43.5537 0 0 43.5537 0 97.28V414.72C0 468.446 43.5537 512 97.28 512H414.72C468.446 512 512 468.446 512 414.72V97.28C512 43.5537 468.446 0 414.72 0Z" fill="white"/>
</mask>
<g mask="url(#mask0_97_371)">
<path d="M414.72 0H97.28C43.5537 0 0 43.5537 0 97.28V414.72C0 468.446 43.5537 512 97.28 512H414.72C468.446 512 512 468.446 512 414.72V97.28C512 43.5537 468.446 0 414.72 0Z" fill="#F34F4F"/>
<path d="M384 384C1056.99 384 1602.56 -161.568 1602.56 -834.56C1602.56 -1507.55 1056.99 -2053.12 384 -2053.12C-288.992 -2053.12 -834.56 -1507.55 -834.56 -834.56C-834.56 -161.568 -288.992 384 384 384Z" fill="#C11818"/>
<path d="M384 138.24C994.783 138.24 1489.92 -356.897 1489.92 -967.68C1489.92 -1578.46 994.783 -2073.6 384 -2073.6C-226.783 -2073.6 -721.92 -1578.46 -721.92 -967.68C-721.92 -356.897 -226.783 138.24 384 138.24Z" fill="#F34F4F"/>
<path d="M-203.536 10.2402C-202.14 17.5775 -203.492 49.6936 -195.158 54.264C-186.824 58.8342 -161.867 33.0914 -153.533 37.6617C-145.199 42.2319 -153.489 77.1151 -145.155 81.6852C-136.821 86.2553 -111.864 60.513 -103.53 65.0831C-95.1961 69.6532 -103.485 104.536 -95.1516 109.107C-86.8178 113.677 -61.8603 87.9342 -53.5265 92.5043C-45.1925 97.0749 -53.482 131.958 -45.1481 136.528C-36.8142 141.098 -11.857 115.356 -3.52306 119.926C4.81083 124.496 -3.47864 159.379 4.85526 163.95C13.1891 168.52 38.1464 142.777 46.4803 147.347C54.8142 151.918 46.5247 186.801 54.8588 191.371C63.1926 195.941 88.1495 170.199 96.4839 174.769C104.818 179.339 96.5279 214.222 104.862 218.792C113.196 223.363 138.153 197.62 146.487 202.19C154.821 206.761 146.531 241.644 154.865 246.214C163.2 250.784 188.156 225.042 196.49 229.612C204.824 234.182 196.535 269.065 204.869 273.635C213.202 278.206 239.556 259.8 246.494 257.033" stroke="#F1BCBC" stroke-opacity="0.2" stroke-width="3" stroke-linecap="round" stroke-linejoin="round"/>
<path d="M-203.536 -51.2002C-202.14 -43.8629 -203.492 -11.7468 -195.158 -7.17654C-186.824 -2.60632 -161.867 -28.349 -153.533 -23.7788C-145.199 -19.2085 -153.489 15.6746 -145.155 20.2448C-136.821 24.8151 -111.864 -0.927585 -103.53 3.64266C-95.1961 8.2129 -103.485 43.0961 -95.1516 47.6663C-86.8178 52.2366 -61.8603 26.4939 -53.5265 31.0641C-45.1925 35.6343 -53.482 70.5176 -45.1481 75.0877C-36.8142 79.6578 -11.857 53.9155 -3.52306 58.4856C4.81083 63.0557 -3.47864 97.9387 4.85526 102.509C13.1891 107.079 38.1464 81.3366 46.4803 85.9067C54.8142 90.4774 46.5247 125.36 54.8588 129.931C63.1926 134.501 88.1495 108.758 96.4839 113.328C104.818 117.899 96.5279 152.782 104.862 157.352C113.196 161.922 138.153 136.18 146.487 140.75C154.821 145.32 146.531 180.203 154.865 184.773C163.2 189.344 188.156 163.601 196.49 168.171C204.824 172.741 196.535 207.625 204.869 212.195C213.202 216.765 239.556 198.36 246.494 195.592" stroke="#F1BCBC" stroke-opacity="0.2" stroke-width="3" stroke-linecap="round" stroke-linejoin="round"/>
<path d="M-203.536 -112.64C-202.14 -105.302 -203.492 -73.1865 -195.158 -68.6158C-186.824 -64.0457 -161.867 -89.7886 -153.533 -85.2185C-145.199 -80.6478 -153.489 -45.7648 -145.155 -41.1946C-136.821 -36.6243 -111.864 -62.3669 -103.53 -57.7968C-95.1961 -53.2267 -103.485 -18.3434 -95.1516 -13.7732C-86.8178 -9.20295 -61.8603 -34.9456 -53.5265 -30.3754C-45.1925 -25.8051 -53.482 9.078 -45.1481 13.6483C-36.8142 18.2185 -11.857 -7.52421 -3.52306 -2.95396C4.81083 1.61628 -3.47864 36.4995 4.85526 41.0697C13.1891 45.6399 38.1464 19.8972 46.4803 24.4675C54.8142 29.0377 46.5247 63.921 54.8588 68.4911C63.1926 73.0612 88.1495 47.3187 96.4839 51.889C104.818 56.4591 96.5279 91.3422 104.862 95.9123C113.196 100.483 138.153 74.7401 146.487 79.3102C154.821 83.8808 146.531 118.764 154.865 123.334C163.2 127.904 188.156 102.162 196.49 106.732C204.824 111.302 196.535 146.185 204.869 150.755C213.202 155.326 239.556 136.92 246.494 134.153" stroke="#F1BCBC" stroke-opacity="0.2" stroke-width="3" stroke-linecap="round" stroke-linejoin="round"/>
<path d="M-203.536 -174.08C-202.14 -166.743 -203.492 -134.627 -195.158 -130.056C-186.824 -125.486 -161.867 -151.229 -153.533 -146.659C-145.199 -142.088 -153.489 -107.205 -145.155 -102.635C-136.821 -98.065 -111.864 -123.807 -103.53 -119.237C-95.1961 -114.667 -103.485 -79.784 -95.1516 -75.2134C-86.8178 -70.6433 -61.8603 -96.3861 -53.5265 -91.816C-45.1925 -87.2454 -53.482 -52.3623 -45.1481 -47.7922C-36.8142 -43.2219 -11.857 -68.9644 -3.52306 -64.3943C4.81083 -59.8242 -3.47864 -24.941 4.85526 -20.3708C13.1891 -15.8005 38.1464 -41.5432 46.4803 -36.9729C54.8142 -32.4027 46.5247 2.48044 54.8588 7.05066C63.1926 11.6209 88.1495 -14.1218 96.4839 -9.55155C104.818 -4.9813 96.5279 29.9018 104.862 34.4721C113.196 39.0423 138.153 13.2996 146.487 17.8699C154.821 22.4401 146.531 57.3234 154.865 61.8935C163.2 66.4637 188.156 40.7211 196.49 45.2913C204.824 49.8615 196.535 84.7446 204.869 89.3147C213.202 93.8853 239.556 75.48 246.494 72.7126" stroke="#F1BCBC" stroke-opacity="0.2" stroke-width="3" stroke-linecap="round" stroke-linejoin="round"/>
<path d="M202.752 135.68V69.6318H325.12L380.928 135.168V135.68H202.752ZM189.952 435.2L134.144 369.664V369.152H312.32V435.2H189.952ZM189.952 276.992L134.144 220.672V220.16H312.32V276.992H189.952ZM134.144 220.16V126.464L202.24 69.6318H202.752V220.16H134.144ZM312.32 435.2V220.16H312.832L380.928 274.944V381.44L312.832 435.2H312.32Z" fill="white"/>
</g>
</g>
<defs>
<clipPath id="clip0_97_371">
<rect width="512" height="512" fill="white"/>
</clipPath>
</defs>
</svg>
