<svg width="512" height="512" viewBox="0 0 512 512" fill="none" xmlns="http://www.w3.org/2000/svg">
<g clip-path="url(#clip0_100_763)">
<path d="M492 0H20C8.9543 0 0 8.9543 0 20V492C0 503.046 8.9543 512 20 512H492C503.046 512 512 503.046 512 492V20C512 8.9543 503.046 0 492 0Z" fill="url(#paint0_linear_100_763)"/>
<path d="M142.75 402V111.091H268.318C289.91 111.091 308.802 115.352 324.994 123.875C341.188 132.398 353.782 144.377 362.778 159.812C371.774 175.248 376.272 193.288 376.272 213.932C376.272 234.766 371.632 252.804 362.352 268.052C353.166 283.298 340.24 295.04 323.574 303.278C307.002 311.518 287.636 315.636 265.478 315.636H190.477V254.272H249.568C258.848 254.272 266.756 252.662 273.29 249.444C279.918 246.128 284.984 241.442 288.488 235.38C292.088 229.32 293.886 222.17 293.886 213.932C293.886 205.598 292.088 198.496 288.488 192.625C284.984 186.659 279.918 182.113 273.29 178.988C266.756 175.769 258.848 174.159 249.568 174.159H221.728V402H142.75Z" fill="white"/>
</g>
<defs>
<linearGradient id="paint0_linear_100_763" x1="95.8666" y1="65.1852" x2="407.542" y2="340.35" gradientUnits="userSpaceOnUse">
<stop stop-color="#00091F"/>
<stop offset="1" stop-color="#410058"/>
</linearGradient>
<clipPath id="clip0_100_763">
<rect width="512" height="512" fill="white"/>
</clipPath>
</defs>
</svg>
