<svg width="1136" height="44" viewBox="0 0 1136 44" fill="none" xmlns="http://www.w3.org/2000/svg">
<path d="M2 2C14.5778 8.66667 52.3111 42 77.4667 42C102.622 42 127.778 2 152.933 2C178.089 2 203.244 42 228.4 42C253.556 42 278.711 2 303.867 2C329.022 2 354.178 42 379.333 42C404.489 42 429.644 2 454.8 2C479.956 2 505.111 42 530.267 42C555.422 42 580.578 2 605.733 2C630.889 2 656.044 42 681.2 42C706.356 42 731.511 2 756.667 2C781.822 2 806.978 42 832.133 42C857.289 42 882.444 2 907.6 2C932.756 2 957.911 42 983.067 42C1008.22 42 1033.38 2 1058.53 2C1083.69 2 1121.42 35.3333 1134 42" stroke="#EBFFCB" stroke-width="3" stroke-linecap="round" stroke-linejoin="round"/>
</svg>
